<?xml version="1.0" encoding="UTF-8"?>
<svg xmlns="http://www.w3.org/2000/svg" xmlns:xlink="http://www.w3.org/1999/xlink" width="50px" height="95px" viewBox="0 0 50 95" version="1.1">
<defs>
<linearGradient id="linear0" gradientUnits="userSpaceOnUse" x1="1015.682312" y1="276.798859" x2="1180.960327" y2="297.969727" spreadMethod="reflect" gradientTransform="matrix(0.0965573,0,0,0.0960887,-84.497416,19.282501)">
<stop offset="0" style="stop-color:rgb(0%,100%,100%);stop-opacity:1;"/>
<stop offset="0.764815" style="stop-color:rgb(0%,0%,50.196078%);stop-opacity:1;"/>
<stop offset="1" style="stop-color:rgb(10.588235%,0%,0%);stop-opacity:1;"/>
</linearGradient>
<linearGradient id="linear1" gradientUnits="userSpaceOnUse" x1="935.209229" y1="372.600098" x2="1351.486572" y2="37.390316" spreadMethod="reflect" gradientTransform="matrix(0.0965573,0,0,0.0960887,-84.497416,19.282501)">
<stop offset="0" style="stop-color:rgb(0%,100%,100%);stop-opacity:1;"/>
<stop offset="0.5" style="stop-color:rgb(0%,0%,50.196078%);stop-opacity:1;"/>
<stop offset="1" style="stop-color:rgb(10.588235%,0%,0%);stop-opacity:1;"/>
</linearGradient>
<linearGradient id="linear2" gradientUnits="userSpaceOnUse" x1="992.690002" y1="-94.910004" x2="1257.601318" y2="-165.708328" spreadMethod="reflect" gradientTransform="matrix(0.0965573,0,0,0.0960887,-84.497416,19.282501)">
<stop offset="0" style="stop-color:rgb(0%,100%,100%);stop-opacity:1;"/>
<stop offset="0.5" style="stop-color:rgb(0%,0%,50.196078%);stop-opacity:1;"/>
<stop offset="1" style="stop-color:rgb(10.588235%,0%,0%);stop-opacity:1;"/>
</linearGradient>
</defs>
<g id="surface1">
<path style=" stroke:none;fill-rule:nonzero;fill:url(#linear0);" d="M 46.699219 70.988281 C 28.855469 59.609375 5.566406 39.085938 0.453125 20.367188 C 1.003906 22.902344 1.550781 25.433594 2.101562 27.96875 C 2.648438 30.5 3.199219 33.035156 3.746094 35.566406 C 7.820312 56.195312 32.164062 79.242188 49.988281 86.1875 C 49.441406 83.652344 48.890625 81.121094 48.339844 78.585938 C 47.792969 76.054688 47.242188 73.519531 46.695312 70.988281 "/>
<path style=" stroke:none;fill-rule:nonzero;fill:url(#linear1);" d="M 5.632812 79.800781 C 17.171875 62.121094 29.890625 33.867188 26.796875 14.714844 C 27.347656 17.246094 27.894531 19.78125 28.445312 22.3125 C 28.992188 24.847656 29.542969 27.378906 30.09375 29.914062 C 33.902344 49.96875 22.300781 81.359375 8.925781 95 C 8.378906 92.464844 7.828125 89.933594 7.28125 87.398438 C 6.730469 84.867188 6.179688 82.332031 5.632812 79.800781 "/>
<path style=" stroke:none;fill-rule:nonzero;fill:url(#linear2);" d="M 26.808594 14.792969 C 25.15625 6.75 17.910156 -1.507812 9.84375 0.234375 C 1.78125 1.976562 -1.21875 12.398438 0.460938 20.433594 C 1.011719 22.96875 1.558594 25.5 2.109375 28.035156 C 2.65625 30.566406 3.207031 33.101562 3.757812 35.636719 C 2.074219 27.597656 5.078125 17.175781 13.140625 15.433594 C 21.203125 13.691406 28.449219 21.949219 30.101562 29.992188 C 29.554688 27.460938 29.003906 24.925781 28.457031 22.394531 C 27.90625 19.859375 27.359375 17.328125 26.808594 14.792969 "/>
</g>
</svg>
